# xmcd
#
# Track frame offsets:
#	150
#	20537
#	42750
#	61490
#	82694
#
# Disc length: 1359 seconds
#
# Revision: 1
# Processed by: cddbd v1.5.2PL0 Copyright (c) Steve Scherf et al.
# Submitted via: audiograbber 1.83.01
#
DISCID=30054d05
DTITLE=Masque Of Innocence - Take 0 Promo
DYEAR=1999
DGENRE=Death
TTITLE0=753- alpha
TTITLE1=Emptiness Portrait
TTITLE2=Dormant Bliss
TTITLE3=Until The End...
TTITLE4=Wrapped In Tears
EXTD=
EXTT0=
EXTT1=
EXTT2=
EXTT3=
EXTT4=
PLAYORDER=
